<svg xmlns="http://www.w3.org/2000/svg" width="109.553" height="89.594" viewBox="0 0 109.553 89.594">
  <g id="Group" transform="translate(-0.475 -0.122)">
    <path id="Path_1" data-name="Path 1" d="M63.446.322a1.61,1.61,0,0,0-.335,1.089c0,.67.419.754,4.4.754,3.728,0,4.482.126,4.692.67.419,1.089-1.047,1.843-3.561,1.843-2.807,0-4.482,1.215-7.666,5.488a31.31,31.31,0,0,1-2.346,2.89,13.742,13.742,0,0,1-2.136-1.676,23.439,23.439,0,0,0-9.09-4.65c-2.472-.545-24.925-.545-25.469,0-1.005,1.005.419,1.3,5.99,1.3,4.775,0,5.907.126,6.493.67,1.089,1.131.042,1.843-2.723,1.843-2.346,0-2.388.042-4.692,2.43a23.708,23.708,0,0,0-3.016,3.77l-.712,1.382-7.415-.042c-4.063-.042-7.666-.042-7.917-.042a.835.835,0,0,0-.545.88c0,.8.293.838,12.064.922,26.475.168,24.925.084,26.977,1.3a7.9,7.9,0,0,1,3.686,8.629,7.778,7.778,0,0,1-10.682,5.111,7.511,7.511,0,0,1-3.519-10.85c.461-.8.712-1.55.586-1.759a5.926,5.926,0,0,0-2.6-.209c-1.34.042-4.65.126-7.331.168l-4.943.042L21.346,23.4a29.088,29.088,0,0,0-.293,4.734,20.969,20.969,0,0,0,3.477,11.6,18.959,18.959,0,0,0,6.912,6.577l2.472,1.466L35.8,46.108a30.92,30.92,0,0,1,10.138-5.194c3.435-.922,3.9-.712,1.047.461A28.546,28.546,0,0,0,36.8,49.166L35,51.6H25.577c-8.252,0-9.425.084-9.677.67a.914.914,0,0,0,.335,1.047c.335.209,7.456.377,15.918.377,11.31,0,15.416.126,15.793.5.67.67.67,5.865,0,6.535a6.507,6.507,0,0,1-3.1.5c-3.309,0-3.938-.545-3.938-3.393V55.785H33.453l-.461,2.095a43.016,43.016,0,0,0-.461,6.7v4.608H16.655c-13.363,0-15.918.084-16.086.586-.545,1.382.754,1.508,17.971,1.592,16.8.126,17.133.126,17.133.963,0,.712-.335.88-2.095,1.047-2.807.293-3.142.586-3.142,2.723,0,2.22-.335,2.388-4.817,2.3-4.566-.084-4.4-.126-4.4.838,0,.8.293.838,7.163.838h7.163l1.634-1.8,1.592-1.759L37.935,78.2a8.982,8.982,0,0,0,.419,8.085l.922,1.34h-15.5c-10.3,0-15.583.126-15.751.419a1.027,1.027,0,0,0,.209,1.047c.461.545,3.309.628,18.809.628,12.022,0,18.851-.168,19.94-.461a7.992,7.992,0,0,0,5.111-5.488l.377-1.8,7.331.168c4.021.084,8.462,0,9.844-.168,2.472-.251,2.513-.293,3.393-2.22a7.672,7.672,0,0,1,1.717-2.472c.8-.461.8-.461,0,1.047a8.442,8.442,0,0,0,.251,7.5l1.047,1.759-5.948.126c-5.613.126-5.948.168-5.948.963s.335.838,8.923.963A78.5,78.5,0,0,0,83.637,89.3a7.224,7.224,0,0,0,5.446-7.079c0-1.843.084-1.885,3.435-2.346,2.639-.377,3.351-1.257,3.184-3.812-.084-1.676-.293-2.136-1.047-2.472-.922-.377-.963-.67-.963-4.273v-3.9h5.823l4.357,2.932a29.971,29.971,0,0,0,4.985,2.932c1.005,0,1.173-1.8,1.173-11.729,0-9.8-.168-11.729-1.131-11.729a31.479,31.479,0,0,0-5.027,3.016l-4.4,3.058h-3.6c-3.184,0-3.644-.084-4.063-.838-.209-.461-.963-1.759-1.592-2.849a8.086,8.086,0,0,1-1.047-2.095c.042-.042,1.424-.712,3.016-1.508a25.58,25.58,0,0,0,12.022-14.285,26.914,26.914,0,0,0,.042-14.578A24.331,24.331,0,0,0,88.455,1.495C85.187.364,84.81.322,74.421.154A100.846,100.846,0,0,0,63.446.322ZM85.438,5.307a19.322,19.322,0,0,1,9.383,5.446c3.854,3.854,6.284,9.551,5.907,13.908l-.126,1.592-.586-2.3A25.569,25.569,0,0,0,89.5,8.993c-1.885-1.257-6.954-3.477-8.043-3.477A2.845,2.845,0,0,1,80.286,5.1C79.281,4.427,82.674,4.595,85.438,5.307ZM48.952,11.423a17.115,17.115,0,0,1,11.017,14.41l.209,2.932-1.047-3.058C56.618,18.46,51.8,13.727,44.26,11.088l-2.723-.963,2.681.251A19.651,19.651,0,0,1,48.952,11.423Zm35.02,5.236a9,9,0,0,1,4.9,11.6,10.275,10.275,0,0,1-5.111,4.943,10.442,10.442,0,0,1-8.169-1.131,8.169,8.169,0,0,1-3.6-7.75A7.64,7.64,0,0,1,76.306,17.2,8.559,8.559,0,0,1,83.972,16.659Zm-8.965,29.7c10.054,2.807,14.62,9.048,15.122,20.736l.168,4.4-.586-2.723a28.484,28.484,0,0,0-3.1-8.8c-1.005-1.759-1.089-1.8-1.215-.838a3.865,3.865,0,0,1-.586,1.55c-.586.712-5.865.712-6.535.042a6.992,6.992,0,0,1-.5-3.267c0-3.1.419-3.77,2.262-3.77h1.257l-1.466-1.047c-3.184-2.388-8.964-4.524-14.075-5.236-1.8-.209-3.812-.5-4.524-.586-.67-.084-2.472-.209-3.98-.251s-2.513-.168-2.262-.251C57.707,45.186,70.944,45.228,75.008,46.359Zm32.8,7.959c.084,2.472.084,2.472-.419,1.047-.545-1.634-2.011-2.136-3.644-1.257-1.592.88-1.3.168.545-1.173a5.686,5.686,0,0,1,2.6-1.215C107.6,51.8,107.724,52.14,107.808,54.318Zm-47.21.209c.586,1.131.335,5.152-.377,6.032-.419.461-1.257.67-3.1.67-3.351,0-4.063-.628-4.063-3.644,0-3.6.335-3.9,3.98-3.9C59.76,53.69,60.221,53.816,60.6,54.528Zm12.148-.042a9.684,9.684,0,0,1,.419,3.016c0,3.1-.67,3.728-4.021,3.728-2.388,0-2.723-.126-3.351-1.047-.545-.8-.628-1.634-.461-3.351a10.665,10.665,0,0,1,.5-2.723,8.525,8.525,0,0,1,3.351-.419C71.824,53.69,72.369,53.816,72.746,54.486ZM46.271,79.913c1.8,1.257.628,4.775-1.592,4.775a3.019,3.019,0,0,1-2.514-2.89,2.709,2.709,0,0,1,2.514-2.555A3.343,3.343,0,0,1,46.271,79.913Zm36.57-.209c2.388,1.257,1.215,4.985-1.55,4.985-.963,0-2.262-1.592-2.262-2.723,0-1.173,1.34-2.723,2.346-2.723A3.9,3.9,0,0,1,82.841,79.7Z" transform="translate(0 0)" fill="#fff"/>
    <path id="Path_2" data-name="Path 2" d="M183.647,50.723c-.712.838-.168,2.346.754,2.346,1.173,0,1.969-1.173,1.424-2.011C185.239,50.095,184.276,49.969,183.647,50.723Z" transform="translate(-106.252 -29.121)" fill="#fff"/>
    <path id="Path_3" data-name="Path 3" d="M194.472,50.679c-.754.922-.335,2.095.8,2.095,1.34,0,2.053-1.173,1.34-2.053A1.238,1.238,0,0,0,194.472,50.679Z" transform="translate(-112.511 -29.035)" fill="#fff"/>
    <path id="Path_4" data-name="Path 4" d="M183.517,61.723a1.336,1.336,0,0,0,2.011,1.759c.545-.545.586-.838.251-1.424C185.151,61.095,184.187,60.969,183.517,61.723Z" transform="translate(-106.164 -35.513)" fill="#fff"/>
    <path id="Path_5" data-name="Path 5" d="M194.517,61.723a1.336,1.336,0,0,0,2.011,1.759c.545-.545.586-.838.251-1.424C196.151,61.095,195.187,60.969,194.517,61.723Z" transform="translate(-112.556 -35.513)" fill="#fff"/>
    <path id="Path_6" data-name="Path 6" d="M93.767,58.834c-1.34.712-.5,2.513,1.005,2.136a1.117,1.117,0,0,0,.8-1.173C95.569,58.666,94.773,58.247,93.767,58.834Z" transform="translate(-53.822 -33.964)" fill="#fff"/>
    <path id="Path_7" data-name="Path 7" d="M103,60a1.151,1.151,0,0,0,2.011.922c.838-.838.335-1.927-.963-1.927C103.209,59,103,59.209,103,60Z" transform="translate(-59.577 -34.214)" fill="#fff"/>
    <path id="Path_8" data-name="Path 8" d="M93.209,68.678c-.419,1.089.168,2.011,1.173,1.843.712-.084.963-.419.963-1.173s-.251-1.089-.963-1.173A1.022,1.022,0,0,0,93.209,68.678Z" transform="translate(-53.808 -39.535)" fill="#fff"/>
    <path id="Path_9" data-name="Path 9" d="M103.224,68.628a1.265,1.265,0,0,0,1.047,1.885c.88,0,1.382-.922,1.047-1.885A1.271,1.271,0,0,0,104.271,68,1.163,1.163,0,0,0,103.224,68.628Z" transform="translate(-59.634 -39.444)" fill="#fff"/>
  </g>
</svg>
